<svg xmlns="http://www.w3.org/2000/svg" width="256" height="256" viewBox="0 0 100 100"><rect width="100" height="100" rx="20" fill="#000000"></rect><path fill="#fff" d="M41.20 77.76L8.88 77.76L8.88 72.40L18.40 72.40L18.40 43.12L8.88 43.12L8.88 37.76L18.40 37.76L18.40 35.52Q18.40 28.00 22.32 24.64Q26.24 21.28 33.52 21.28L33.52 21.28Q36.16 21.28 38.24 21.60Q40.32 21.92 42.72 22.88L42.72 22.88L41.28 28.08Q39.20 27.20 37.28 26.92Q35.36 26.64 33.76 26.64L33.76 26.64Q28.48 26.64 26.56 29.24Q24.64 31.84 24.64 37.76L24.64 37.76L41.20 37.76L41.20 43.12L24.64 43.12L24.64 72.40L41.20 72.40L41.20 77.76ZM84.88 66.96L84.88 66.96Q84.88 64.40 82.88 63.00Q80.88 61.60 77.92 60.76Q74.96 59.92 71.48 59.20Q68 58.48 65.04 57.28Q62.08 56.08 60.08 54.04Q58.08 52 58.08 48.32L58.08 48.32Q58.08 45.28 59.40 43.12Q60.72 40.96 62.88 39.56Q65.04 38.16 67.92 37.48Q70.80 36.80 73.92 36.80L73.92 36.80Q79.52 36.80 83.56 38.20Q87.60 39.60 90 41.12L90 41.12L87.44 46.16Q84.80 44.72 81.72 43.40Q78.64 42.08 74 42.08L74 42.08Q72.24 42.08 70.52 42.44Q68.80 42.80 67.40 43.52Q66 44.24 65.16 45.40Q64.32 46.56 64.32 48.24L64.32 48.24Q64.32 50.32 66.32 51.44Q68.32 52.56 71.28 53.32Q74.24 54.08 77.72 54.76Q81.20 55.44 84.16 56.72Q87.12 58 89.12 60.16Q91.12 62.32 91.12 66L91.12 66Q91.12 71.52 86.76 75.12Q82.40 78.72 73.68 78.72L73.68 78.72Q71.04 78.72 68.48 78.24Q65.92 77.76 63.68 76.96Q61.44 76.16 59.60 75.16Q57.76 74.16 56.56 73.12L56.56 73.12L59.76 67.92Q60.72 68.88 62.32 69.88Q63.92 70.88 65.84 71.68Q67.76 72.48 69.96 72.96Q72.16 73.44 74.40 73.44L74.40 73.44Q76.56 73.44 78.44 73.08Q80.32 72.72 81.76 71.96Q83.20 71.20 84.04 69.96Q84.88 68.72 84.88 66.96Z"></path></svg>